<?xml version="1.0" standalone="no"?>
<!DOCTYPE svg PUBLIC "-//W3C//DTD SVG 20010904//EN"
 "http://www.w3.org/TR/2001/REC-SVG-20010904/DTD/svg10.dtd">
<svg version="1.0" xmlns="http://www.w3.org/2000/svg"
 width="24.000000pt" height="24.000000pt" viewBox="0 0 24.000000 24.000000"
 preserveAspectRatio="xMidYMid meet">

<g transform="translate(0.000000,24.000000) scale(0.100000,-0.100000)"
fill="#000000" stroke="none">
<path d="M14 207 c-11 -29 0 -102 16 -102 19 0 22 106 3 112 -7 3 -16 -2 -19
-10z"/>
<path d="M82 208 c-6 -6 -12 -33 -12 -60 0 -39 6 -54 31 -83 38 -43 54 -45 46
-5 -6 29 -5 30 27 30 53 0 63 21 35 77 -23 46 -26 48 -69 51 -26 2 -50 -2 -58
-10z"/>
</g>
</svg>
