<?xml version="1.0" standalone="no"?>
<!DOCTYPE svg PUBLIC "-//W3C//DTD SVG 20010904//EN"
 "http://www.w3.org/TR/2001/REC-SVG-20010904/DTD/svg10.dtd">
<svg version="1.0" xmlns="http://www.w3.org/2000/svg"
 width="24.000000pt" height="24.000000pt" viewBox="0 0 24.000000 24.000000"
 preserveAspectRatio="xMidYMid meet">

<g transform="translate(0.000000,24.000000) scale(0.100000,-0.100000)"
fill="#000000" stroke="none">
<path d="M14 217 c-3 -8 -4 -36 -2 -63 3 -42 6 -49 26 -52 12 -2 22 1 22 7 0
6 -7 11 -15 11 -11 0 -15 12 -15 45 0 38 3 45 20 45 17 0 20 -7 21 -52 0 -39
8 -65 28 -98 36 -58 56 -59 55 -2 -1 40 1 42 28 42 36 0 44 19 32 79 -9 44
-11 46 -46 49 -22 2 -38 -1 -38 -7 0 -6 13 -11 29 -11 34 0 36 -2 45 -52 l7
-38 -37 0 -37 0 5 -45 c3 -25 2 -45 -3 -45 -18 0 -44 68 -49 130 -5 65 -5 65
-38 68 -21 2 -34 -2 -38 -11z"/>
</g>
</svg>
