<?xml version="1.0" standalone="no"?>
<!DOCTYPE svg PUBLIC "-//W3C//DTD SVG 20010904//EN"
 "http://www.w3.org/TR/2001/REC-SVG-20010904/DTD/svg10.dtd">
<svg version="1.0" xmlns="http://www.w3.org/2000/svg"
 width="24.000000pt" height="24.000000pt" viewBox="0 0 24.000000 24.000000"
 preserveAspectRatio="xMidYMid meet">

<g transform="translate(0.000000,24.000000) scale(0.100000,-0.100000)"
fill="#000000" stroke="none">
<path d="M77 190 c-7 -10 -25 -24 -40 -29 -25 -10 -27 -15 -27 -65 0 -32 5
-58 12 -62 19 -12 137 -15 157 -5 18 10 41 71 41 110 0 18 -6 21 -45 21 -41 0
-45 2 -45 25 0 31 -32 34 -53 5z m43 -15 c0 -23 4 -25 45 -25 50 0 51 -3 34
-65 -13 -47 -23 -55 -66 -55 -57 0 -63 7 -63 71 0 60 15 99 37 99 7 0 13 -11
13 -25z m-70 -85 c0 -33 -4 -60 -10 -60 -6 0 -10 27 -10 60 0 33 4 60 10 60 6
0 10 -27 10 -60z"/>
</g>
</svg>
